<svg width="110" height="100" viewBox="0 0 110 100" fill="none" xmlns="http://www.w3.org/2000/svg">
<path d="M67.914 0C73.2875 0.0388479 77.6105 2.81925 80.1295 7.82507C81.279 10.1115 83.193 14.2017 84.755 17.5481C85.1455 18.375 85.558 18.6414 86.009 18.6414C99.2365 18.6414 110 29.5022 110 42.8492V75.7922C110 89.1392 99.2365 100 86.009 100H47.19C44.913 100 43.065 98.1353 43.065 95.8377C43.065 93.5402 44.913 91.6754 47.19 91.6754H86.009C94.688 91.6754 101.75 84.5496 101.75 75.7922V42.8492C101.75 34.0918 94.688 26.966 86.009 26.966C82.3845 26.966 79.0405 24.8293 77.495 21.5273C75.768 17.8312 73.8925 13.8298 72.7705 11.5878C71.643 9.35124 70.136 8.3412 67.881 8.32455H42.0915C39.8695 8.3412 38.357 9.35124 37.2295 11.5933C36.5489 12.9495 35.589 14.9626 34.5981 17.0675L33.4103 19.6014L32.835 20.8336L32.5105 21.5273C30.965 24.8293 27.621 26.966 23.9965 26.966C15.312 26.966 8.25 34.0918 8.25 42.8492V75.7922C8.25 84.5496 15.312 91.6754 23.9965 91.6754H28.094C30.371 91.6754 32.219 93.5402 32.219 95.8377C32.219 98.1353 30.371 100 28.094 100H23.9965C10.7635 100 0 89.1392 0 75.7922V42.8492C0 29.5022 10.7635 18.6414 23.9965 18.6414C24.453 18.6414 24.86 18.3806 25.0525 17.9699L25.377 17.2818C26.9115 13.9908 28.754 10.0505 29.8705 7.83062C32.3895 2.81925 36.718 0.0388479 42.053 0H67.914ZM55.0044 35.5353C60.7519 35.5353 66.1694 37.8051 70.2614 41.9341C74.3589 46.0686 76.6139 51.5572 76.6084 57.3733C76.6579 63.1062 74.4249 68.5671 70.3384 72.7182C66.2299 76.8916 60.7849 79.1892 55.0044 79.1892C49.2129 79.1836 43.7899 76.9027 39.7089 72.7682C35.6279 68.6337 33.3839 63.145 33.3949 57.3289C33.3949 55.0868 33.7414 52.8781 34.4124 50.7414C35.0999 48.5493 37.4099 47.3506 39.5934 48.0387C41.7659 48.738 42.9649 51.08 42.2774 53.2665C41.8594 54.5818 41.6449 55.9526 41.6449 57.3345C41.6394 60.9418 43.0254 64.3326 45.5554 66.8911C48.0799 69.4495 51.4294 70.8591 54.9934 70.8646C58.5684 70.8646 61.9399 69.4384 64.4864 66.8522C67.0109 64.2827 68.3859 60.9307 68.3584 57.4011C68.3639 53.7716 66.9669 50.3863 64.4259 47.8223C61.8959 45.2694 58.5519 43.8598 55.0044 43.8598C54.0144 43.8598 53.0409 43.9653 52.0894 44.1761C49.8619 44.6978 47.6619 43.266 47.1669 41.0295C46.6664 38.7874 48.0689 36.5564 50.2909 36.0625C51.8254 35.7073 53.4094 35.5353 54.9934 35.5353H55.0044ZM83.4356 36.2967C84.4256 35.9082 85.5806 35.9082 86.5705 36.2967C87.0656 36.5187 87.5605 36.8517 87.8905 37.1902C88.2756 37.5787 88.6056 38.0781 88.8256 38.5776C89.0456 39.0715 89.1555 39.6265 89.1555 40.1315C89.1555 41.2359 88.7155 42.2904 87.8905 43.0673C87.5055 43.4558 87.0656 43.7888 86.5705 44.0108C86.0755 44.2328 85.5256 44.2938 84.9755 44.2938C83.9305 44.2938 82.8856 43.8998 82.0606 43.0673C81.2906 42.2904 80.8505 41.2359 80.8505 40.1315C80.8505 39.6265 80.9605 39.0715 81.1805 38.5776C81.4006 38.0781 81.7306 37.5787 82.0606 37.1902C82.4455 36.8517 82.9406 36.5187 83.4356 36.2967Z" fill="#BDBDBD"/>
</svg>
