<svg width="52" height="45" viewBox="0 0 52 45" fill="none" xmlns="http://www.w3.org/2000/svg">
<path fill-rule="evenodd" clip-rule="evenodd" d="M28.3699 2.95753C25.5869 3.14158 22.4368 3.56852 18.9697 4.37494C38.9484 -2.31913 51.3725 0.606064 51.9931 0.810059V0.903466L51.9938 0.903237C51.5557 7.78241 41.6608 26.3661 12.832 39.8928C43.275 19.8659 42.1985 4.39291 42.1821 4.17947L42.1816 4.17965L42.1819 4.17975L42.1816 4.17986C42.1853 4.22536 43.4421 19.7558 12.8316 39.8928C9.78852 41.3305 6.5253 42.6974 3.04197 43.9937C23.0153 27.9667 29.0677 17.8212 29.4 8.45358L41.9724 4.24969L29.4003 8.44729C18.8205 8.3881 10.1832 9.94073 0 12.8118C6.87861 9.01142 13.2348 6.29652 18.9703 4.37494C22.4372 3.56858 25.587 3.14161 28.3699 2.95753ZM3.04197 43.9937C3.0371 43.9955 3.03222 43.9973 3.02734 43.9991V44.0054C3.03222 44.0015 3.0371 43.9976 3.04197 43.9937Z" fill="#E3EEFF"/>
</svg>
