<svg width="52" height="44" viewBox="0 0 52 44" fill="none" xmlns="http://www.w3.org/2000/svg">
<g clip-path="url(#clip0)">
<path fill-rule="evenodd" clip-rule="evenodd" d="M32 2.84455C28.4404 2.8272 24.0447 3.19455 18.9697 4.37494C38.9484 -2.31913 51.3725 0.606064 51.9931 0.810059V0.90576L42.1815 4.17967C42.1818 4.17975 42.1819 4.17979 42.1819 4.17979L29.4003 8.44732C18.8205 8.38813 10.1832 9.94076 0 12.8118C6.87861 9.01145 13.2348 6.29655 18.9703 4.37497C24.045 3.19465 28.4405 2.82725 32 2.84455Z" fill="#8FAEE6"/>
<path fill-rule="evenodd" clip-rule="evenodd" d="M51.9938 0.903259C51.5557 7.78243 41.6608 26.3661 12.832 39.8928C21.102 34.4524 27.0459 29.3481 31.317 24.7945C27.0459 29.348 21.1018 34.4522 12.8316 39.8927C9.78852 41.3305 6.52531 42.6974 3.04198 43.9936C23.0153 27.9667 29.0677 17.8212 29.4 8.45357L42.1816 4.17975C42.1816 4.17975 42.2566 5.07294 41.9484 6.70887C42.257 5.07137 42.182 4.17726 42.182 4.17726L51.9938 0.903259ZM3.04198 43.9936C3.0371 43.9955 3.03222 43.9973 3.02734 43.9991V44.0054C3.03222 44.0015 3.0371 43.9976 3.04198 43.9936Z" fill="#3E4A70"/>
</g>
<defs>
<clipPath id="clip0">
<rect width="52" height="44" fill="white"/>
</clipPath>
</defs>
</svg>
